<svg width="24" height="25" viewBox="0 0 24 25" fill="none" xmlns="http://www.w3.org/2000/svg">
<path d="M4 20.783C3.45 20.783 2.97917 20.5871 2.5875 20.1955C2.19583 19.8038 2 19.333 2 18.783V6.78296C2 6.23296 2.19583 5.76213 2.5875 5.37046C2.97917 4.97879 3.45 4.78296 4 4.78296H20C20.55 4.78296 21.0208 4.97879 21.4125 5.37046C21.8042 5.76213 22 6.23296 22 6.78296V18.783C22 19.333 21.8042 19.8038 21.4125 20.1955C21.0208 20.5871 20.55 20.783 20 20.783H4ZM12 13.783L4 8.78296V18.783H20V8.78296L12 13.783ZM12 11.783L20 6.78296H4L12 11.783ZM4 8.78296V6.78296V18.783V8.78296Z" fill="white"/>
</svg>
