<svg width="40" height="40" viewBox="0 0 40 40" fill="none" xmlns="http://www.w3.org/2000/svg">
<path d="M20 0C8.95442 0 0 8.95442 0 20C0 31.0456 8.95442 40 20 40C31.0456 40 40 31.0456 40 20C40 8.95442 31.0456 0 20 0ZM29.3395 13.4847C29.04 16.6381 27.7395 24.294 27.0791 27.827C26.8 29.3228 26.2493 29.8233 25.7153 29.8716C24.5563 29.9777 23.6781 29.107 22.5544 28.3702C20.7981 27.2186 19.8065 26.5023 18.1023 25.3805C16.1321 24.0819 17.4102 23.3693 18.5321 22.2028C18.826 21.8977 23.9293 17.2558 24.0279 16.8335C24.0409 16.7814 24.0521 16.5842 23.9349 16.48C23.8177 16.3758 23.6465 16.4112 23.5219 16.4391C23.3451 16.4781 20.5414 18.333 15.107 22C14.3107 22.547 13.5888 22.813 12.9433 22.8C12.2307 22.7851 10.8614 22.3981 9.84186 22.067C8.59349 21.6614 7.6 21.4456 7.68558 20.7572C7.73023 20.3981 8.22512 20.0298 9.17023 19.6558C14.986 17.1219 18.8633 15.4512 20.8037 14.6456C26.3442 12.3405 27.494 11.9405 28.2456 11.9274C28.4112 11.9237 28.7795 11.9647 29.0177 12.16C29.2186 12.3237 29.2744 12.5451 29.3023 12.6995C29.3302 12.854 29.3619 13.2093 29.3358 13.4847H29.3395Z" fill="#0079C1"/>
</svg>
