<svg width="237" height="62" viewBox="0 0 237 62" fill="none" xmlns="http://www.w3.org/2000/svg">
<path d="M70.7421 17.3294V27.3315H74.1674C76.414 27.3315 78.057 27.1472 79.0958 26.7892C79.9456 26.504 80.6103 25.9623 81.0907 25.1684C81.5711 24.3698 81.8113 23.3915 81.8113 22.2235C81.8113 21.2734 81.6377 20.4351 81.2973 19.7145C80.9508 18.9939 80.465 18.4738 79.8278 18.1442C78.9337 17.5965 77.3969 17.3287 75.2123 17.3287H70.7421V17.3294ZM70.7421 7.048V15.0828H75.4081C77.0451 15.0828 78.353 15.2006 79.3306 15.4293C80.3082 15.6588 81.1688 16.0443 81.9062 16.592C82.6941 17.1565 83.2922 17.9275 83.7114 18.8883C84.1252 19.8551 84.3317 20.9559 84.3317 22.1905C84.3317 23.5873 84.0855 24.8057 83.5882 25.856C83.091 26.9009 82.3758 27.7056 81.448 28.264C80.6992 28.7337 79.8218 29.0687 78.8213 29.2699C77.8208 29.4711 76.5472 29.5713 74.999 29.5713H68.2715V4.80078H82.7775V7.04733H70.7414L70.7421 7.048ZM101.095 11.239C101.095 11.239 101.922 11.239 103.57 11.239C103.57 11.239 103.57 17.3462 103.57 29.5727C103.57 29.5727 102.743 29.5727 101.095 29.5727C101.095 29.5727 101.095 24.6328 101.095 14.7599C101.095 14.7599 97.3737 19.6937 89.9309 29.5727C89.9309 29.5727 89.104 29.5727 87.4442 29.5727C87.4442 29.5727 87.4442 23.4594 87.4442 11.239C87.4442 11.239 88.2711 11.239 89.9309 11.239C89.9309 11.239 89.9309 16.1788 89.9309 26.0518C89.9309 26.0518 93.6523 21.112 101.095 11.239ZM112.248 20.9283V18.8829C113.863 18.8829 115.07 18.6151 115.875 18.0728C116.674 17.5305 117.077 16.7931 117.077 15.8545C117.077 15.1003 116.747 14.4517 116.076 13.9155C115.411 13.3732 114.607 13.1054 113.657 13.1054C112.729 13.1054 111.958 13.3678 111.337 13.8987C110.723 14.4295 110.382 15.0774 110.315 15.8545H107.794C107.862 14.4241 108.448 13.2225 109.56 12.2502C110.677 11.2834 112.052 10.7976 113.689 10.7976C115.337 10.7976 116.734 11.2841 117.88 12.2617C119.025 13.2393 119.596 14.4349 119.596 15.8545C119.596 16.7373 119.327 17.5474 118.786 18.2854C118.249 19.0229 117.534 19.5201 116.651 19.7831C117.796 20.1014 118.735 20.6329 119.467 21.3871C120.199 22.1414 120.562 23.1028 120.562 24.2702C120.562 25.8628 119.903 27.2205 118.584 28.3381C117.26 29.4556 115.645 30.0147 113.734 30.0147C111.851 30.0147 110.253 29.4617 108.946 28.3556C107.644 27.2434 106.962 25.8856 106.895 24.2709H109.398C109.466 25.2545 109.896 26.07 110.689 26.7347C111.488 27.3941 112.489 27.7238 113.69 27.7238C114.908 27.7238 115.941 27.388 116.791 26.7179C117.634 26.0471 118.059 25.2316 118.059 24.2702C118.059 23.2865 117.578 22.4818 116.617 21.8622C115.656 21.2418 114.198 20.929 112.248 20.929L112.248 20.9283ZM139.846 29.5727C139.846 29.5727 139.019 29.5727 137.359 29.5727C137.359 29.5727 137.359 26.8343 137.359 21.3528C137.359 21.3528 133.699 21.3528 126.374 21.3528C126.374 21.3528 126.374 24.0912 126.374 29.5727C126.374 29.5727 125.547 29.5727 123.887 29.5727C123.887 29.5727 123.887 23.4594 123.887 11.239C123.887 11.239 124.714 11.239 126.374 11.239C126.374 11.239 126.374 13.8596 126.374 19.1123C126.374 19.1123 130.039 19.1123 137.359 19.1123C137.359 19.1123 137.359 16.4863 137.359 11.239C137.359 11.239 138.192 11.239 139.846 11.239C139.846 11.239 139.846 17.3462 139.846 29.5727ZM162.421 21.225C162.421 21.225 156.894 21.225 145.836 21.225C145.937 23.0356 146.68 24.5723 148.066 25.8352C149.452 27.0927 151.089 27.7238 152.978 27.7238C154.374 27.7238 155.659 27.3382 156.839 26.5672C158.018 25.8015 158.861 24.7903 159.375 23.5328H161.962C161.286 25.4665 160.13 27.0254 158.492 28.221C156.855 29.4166 155.038 30.0147 153.038 30.0147C151.709 30.0147 150.44 29.7631 149.244 29.2605C148.043 28.7633 147.009 28.0757 146.148 27.2151C145.288 26.3546 144.606 25.3211 144.103 24.1195C143.6 22.9239 143.349 21.6549 143.349 20.3254C143.349 18.5768 143.768 16.9728 144.612 15.5087C145.45 14.05 146.595 12.8995 148.048 12.0551C149.5 11.2168 151.099 10.7976 152.842 10.7976C154.653 10.7976 156.324 11.2451 157.843 12.1386C159.369 13.0327 160.525 14.2505 161.325 15.7873C161.727 16.5637 162.012 17.3576 162.174 18.1677C162.337 18.9832 162.421 20.0005 162.421 21.2243V21.225ZM145.903 18.9785H159.951C159.532 17.1565 158.693 15.7153 157.42 14.6589C156.145 13.6026 154.625 13.0718 152.843 13.0718C151.11 13.0718 149.602 13.6141 148.328 14.698C147.048 15.7873 146.243 17.2123 145.903 18.9785ZM181.296 24.1693C181.296 24.1693 182.235 24.1693 184.106 24.1693C183.587 25.1637 183.106 25.9408 182.67 26.5046C182.235 27.0637 181.709 27.5778 181.095 28.036C179.418 29.3547 177.423 30.0141 175.121 30.0141C173.266 30.0141 171.573 29.5895 170.048 28.7458C168.517 27.9021 167.321 26.7394 166.443 25.2586C165.572 23.7777 165.136 22.1461 165.136 20.3584C165.136 18.5983 165.572 16.9889 166.438 15.5249C167.304 14.0662 168.494 12.9096 169.997 12.0659C171.506 11.2168 173.16 10.7976 174.959 10.7976C177.032 10.7976 178.882 11.3339 180.513 12.4185C182.145 13.497 183.335 14.961 184.079 16.8046H181.296C180.586 15.6036 179.681 14.6811 178.591 14.0386C177.502 13.39 176.278 13.0718 174.926 13.0718C172.886 13.0718 171.165 13.7809 169.762 15.2006C168.36 16.6195 167.656 18.3574 167.656 20.4196C167.656 22.465 168.371 24.1915 169.791 25.6051C171.216 27.0133 172.959 27.7231 175.027 27.7231C176.334 27.7231 177.468 27.4493 178.418 26.9016C179.374 26.3593 180.335 25.449 181.296 24.1693ZM70.7421 61.1522C70.7421 61.1522 69.9206 61.1522 68.2722 61.1522C68.2722 61.1522 68.2722 52.8933 68.2722 36.3816C68.2722 36.3816 74.0443 36.3816 85.5939 36.3816C85.5939 36.3816 85.5939 44.6405 85.5939 61.1522C85.5939 61.1522 84.767 61.1522 83.1186 61.1522C83.1186 61.1522 83.1186 53.6422 83.1186 38.6282C83.1186 38.6282 78.9949 38.6282 70.7414 38.6282C70.7414 38.6282 70.7414 46.1321 70.7414 61.1522H70.7421ZM105.978 55.7488C105.978 55.7488 106.917 55.7488 108.789 55.7488C108.269 56.7432 107.788 57.5203 107.353 58.0841C106.917 58.6432 106.391 59.1573 105.777 59.6155C104.101 60.9342 102.106 61.5936 99.8039 61.5936C97.9489 61.5936 96.2554 61.169 94.7301 60.3253C93.1995 59.4816 92.0032 58.3189 91.1259 56.8381C90.2545 55.3572 89.8186 53.7256 89.8186 51.9379C89.8186 50.1778 90.2546 48.5684 91.1205 47.1044C91.9864 45.6457 93.1766 44.4891 94.6797 43.6454C96.1888 42.7963 97.8426 42.3771 99.6417 42.3771C101.715 42.3771 103.564 42.9134 105.196 43.998C106.827 45.0765 108.018 46.5405 108.761 48.3841H105.978C105.269 47.1831 104.364 46.2607 103.274 45.6181C102.184 44.9695 100.96 44.6513 99.6081 44.6513C97.5688 44.6513 95.8477 45.3604 94.4449 46.7801C93.042 48.199 92.3383 49.9369 92.3383 51.9991C92.3383 54.0445 93.0535 55.771 94.4731 57.1846C95.8982 58.5928 97.6414 59.3026 99.709 59.3026C101.016 59.3026 102.151 59.0288 103.101 58.4811C104.056 57.9388 105.018 57.0285 105.978 55.7488ZM125.865 42.8185C125.865 42.8185 126.692 42.8185 128.34 42.8185C128.34 42.8185 128.34 48.9257 128.34 61.1522C128.34 61.1522 127.513 61.1522 125.865 61.1522C125.865 61.1522 125.865 56.2123 125.865 46.3394C125.865 46.3394 122.144 51.2732 114.701 61.1522C114.701 61.1522 113.874 61.1522 112.214 61.1522C112.214 61.1522 112.214 55.0389 112.214 42.8185C112.214 42.8185 113.041 42.8185 114.701 42.8185C114.701 42.8185 114.701 47.7583 114.701 57.6313C114.701 57.6313 118.422 52.6915 125.865 42.8185ZM130.715 61.1522C130.715 61.1522 132.844 58.0343 137.102 51.804C137.102 51.804 134.974 48.8093 130.715 42.8192C130.715 42.8192 131.654 42.8192 133.532 42.8192C133.532 42.8192 135.191 45.1774 138.505 49.8878C138.505 49.8878 140.148 47.5296 143.433 42.8192C143.433 42.8192 144.383 42.8192 146.283 42.8192C146.283 42.8192 144.143 45.8139 139.868 51.804C139.868 51.804 142.003 54.9219 146.283 61.1522C146.283 61.1522 145.333 61.1522 143.433 61.1522C143.433 61.1522 141.79 58.7045 138.505 53.8043C138.505 53.8043 136.851 56.252 133.532 61.1522C133.532 61.1522 132.593 61.1522 130.715 61.1522ZM157.073 42.3771C158.855 42.3771 160.459 42.7909 161.895 43.6286C163.331 44.4609 164.455 45.6181 165.27 47.0875C166.08 48.563 166.488 50.2108 166.488 52.0328C166.488 54.7819 165.605 57.0675 163.834 58.8781C162.068 60.6886 159.832 61.5936 157.14 61.5936C155.296 61.5936 153.625 61.1798 152.128 60.3475C150.635 59.5206 149.463 58.3748 148.619 56.9114C147.775 55.4527 147.351 53.8158 147.351 51.9998C147.351 49.217 148.267 46.9207 150.1 45.0987C151.933 43.2827 154.257 42.3771 157.074 42.3771H157.073ZM156.877 44.6513C154.871 44.6513 153.2 45.3497 151.871 46.7525C150.535 48.1553 149.87 49.9154 149.87 52.0328C149.87 54.1279 150.552 55.8658 151.916 57.2404C153.285 58.615 155 59.3026 157.074 59.3026C159.096 59.3026 160.751 58.621 162.041 57.2633C163.338 55.9055 163.986 54.173 163.986 52.0664C163.986 49.904 163.315 48.1271 161.985 46.7357C160.655 45.3443 158.951 44.6513 156.878 44.6513H156.877ZM185.677 61.1515C185.677 61.1515 184.799 61.1515 183.056 61.1515C183.056 61.1515 180.843 55.9775 176.423 45.6343C176.423 45.6343 174.2 50.8029 169.746 61.1515C169.746 61.1515 168.874 61.1515 167.126 61.1515C167.126 61.1515 169.758 55.0383 175.016 42.8178C175.016 42.8178 175.943 42.8178 177.804 42.8178C177.804 42.8178 180.425 48.925 185.677 61.1515H185.677ZM196.037 42.3765C197.819 42.3765 199.423 42.7902 200.859 43.6279C202.295 44.4602 203.418 45.6174 204.234 47.0869C205.044 48.5624 205.452 50.2101 205.452 52.0321C205.452 54.7812 204.569 57.0668 202.797 58.8774C201.032 60.6879 198.796 61.5929 196.103 61.5929C194.26 61.5929 192.589 61.1791 191.092 60.3468C189.599 59.5199 188.426 58.3741 187.583 56.9107C186.739 55.452 186.314 53.8151 186.314 51.9991C186.314 49.2164 187.231 46.92 189.064 45.098C190.896 43.2821 193.221 42.3765 196.037 42.3765H196.037ZM195.841 44.6506C193.835 44.6506 192.164 45.349 190.835 46.7518C189.499 48.1546 188.834 49.9147 188.834 52.0321C188.834 54.1273 189.516 55.8652 190.88 57.2397C192.249 58.6143 193.964 59.3019 196.037 59.3019C198.06 59.3019 199.714 58.6204 201.005 57.2626C202.301 55.9049 202.949 54.1723 202.949 52.0657C202.949 49.9033 202.279 48.1264 200.949 46.735C199.619 45.3436 197.915 44.6506 195.842 44.6506H195.841ZM218.354 42.8178C218.354 42.8178 218.354 43.5667 218.354 45.0583C218.354 45.0583 216.058 45.0583 211.459 45.0583C211.459 45.0583 211.459 50.4227 211.459 61.1508C211.459 61.1508 210.632 61.1508 208.972 61.1508C208.972 61.1508 208.972 55.0376 208.972 42.8172C208.972 42.8172 212.102 42.8172 218.354 42.8172V42.8178ZM234.525 42.8178C234.525 42.8178 235.352 42.8178 237 42.8178C237 42.8178 237 48.925 237 61.1515C237 61.1515 236.173 61.1515 234.525 61.1515C234.525 61.1515 234.525 56.2117 234.525 46.3387C234.525 46.3387 230.803 51.2725 223.361 61.1515C223.361 61.1515 222.534 61.1515 220.874 61.1515C220.874 61.1515 220.874 55.0383 220.874 42.8178C220.874 42.8178 221.701 42.8178 223.361 42.8178C223.361 42.8178 223.361 47.7577 223.361 57.6306C223.361 57.6306 227.082 52.6908 234.525 42.8178Z" fill="#2B2A29"/>
<path d="M33.2079 47.9622L36.9737 26.1951L18.1576 37.1594L33.2079 47.9622ZM39.013 24.6456L34.6915 49.6281C34.6679 49.7546 34.6181 49.8784 34.5381 49.9901C34.2575 50.3803 33.7132 50.4691 33.3229 50.1885L16.0893 37.8187C15.9749 37.7461 15.876 37.6452 15.8034 37.52C15.5618 37.1035 15.7045 36.57 16.1209 36.3284L37.6821 23.7649C37.8591 23.6518 38.0771 23.6014 38.3005 23.6391C38.7755 23.7198 39.0951 24.1713 39.0137 24.6463L39.013 24.6456Z" fill="#00A0AF"/>
<path d="M6.11336 44.177L1.86989 51.8673L5.99898 59.3497H31.2378L32.2942 53.2432L13.5924 39.8191L6.11336 44.177ZM0.108441 51.4475L4.70044 43.126C4.77445 42.9915 4.88547 42.8744 5.0281 42.7916L13.2029 38.0287C13.4908 37.8632 13.8616 37.87 14.1482 38.0765L33.7024 52.1122C33.9977 52.2932 34.168 52.6411 34.1067 53.003L32.8398 60.328C32.7887 60.7613 32.4193 61.0984 31.9719 61.0984H5.48428C5.1768 61.0964 4.87807 60.9329 4.71928 60.6443L0.107769 52.2878C-0.0308324 52.0348 -0.0409247 51.7193 0.107769 51.4481L0.108441 51.4475Z" fill="#49176D"/>
<path d="M35.8908 59.3497H52.0055L56.1468 51.8451C51.396 43.2364 46.6607 34.6202 41.8782 26.0296L35.8908 59.3504V59.3497ZM52.5196 61.0977H34.8493V61.0944C34.7988 61.0944 34.747 61.0897 34.6959 61.0802C34.2229 60.9955 33.908 60.5426 33.9928 60.0697L40.5911 23.3464C40.6295 23.0881 40.7836 22.8492 41.0291 22.7126C41.4497 22.4792 41.9798 22.6299 42.214 23.0504C47.4714 32.4948 52.6851 41.96 57.9082 51.4246C58.0468 51.6776 58.0569 51.9931 57.9082 52.2643L53.3101 60.5971C53.1702 60.8925 52.8688 61.0971 52.5203 61.0971L52.5196 61.0977Z" fill="#49A942"/>
<path d="M29.0149 2.67876L10.651 35.9551L38.4418 19.7617L29.0143 2.67876H29.0149ZM11.8742 30.1285L28.2506 0.453073C28.328 0.312454 28.4444 0.191346 28.5958 0.107917C29.0176 -0.124206 29.5485 0.0305422 29.7806 0.453073L40.3836 19.6655C40.611 20.0799 40.467 20.602 40.0559 20.8402L8.82561 39.038C8.56658 39.2001 8.22949 39.221 7.94287 39.0635C7.52101 38.8314 7.36627 38.3012 7.59772 37.8787L11.8748 30.1285H11.8742Z" fill="#0079C1"/>
</svg>
