<svg width="40" height="40" viewBox="0 0 40 40" fill="none" xmlns="http://www.w3.org/2000/svg">
<path d="M20 0C8.95442 0 0 8.95442 0 20C0 31.0456 8.95442 40 20 40C31.0456 40 40 31.0456 40 20C40 8.95442 31.0456 0 20 0ZM27.0437 27.3749C26.1786 24.6809 24.0242 22.5972 21.174 22.3126V27.3749H20.7349C12.9786 27.3749 8.55628 22.0577 8.37209 13.2112H12.2567C12.3851 19.7042 15.2484 22.4558 17.5163 23.0233V13.2112H21.174V18.8112C23.414 18.5693 25.7674 16.0186 26.5619 13.2112H30.2195C29.6093 16.6698 27.0586 19.2223 25.2428 20.2716C27.0567 21.1219 29.9647 23.3488 31.0698 27.3749H27.0437Z" fill="#0079C1"/>
</svg>
