<svg width="40" height="40" viewBox="0 0 40 40" fill="none" xmlns="http://www.w3.org/2000/svg">
<path d="M20 0C8.95442 0 0 8.95442 0 20C0 31.0456 8.95442 40 20 40C31.0456 40 40 31.0456 40 20C40 8.95442 31.0456 0 20 0ZM29.866 24.8967C29.6279 25.7879 28.9247 26.4912 28.0335 26.7293C26.4167 27.1628 19.9349 27.1628 19.9349 27.1628C19.9349 27.1628 13.453 27.1628 11.8363 26.7293C10.9451 26.4912 10.2419 25.7879 10.0037 24.8967C9.57023 23.28 9.57023 19.907 9.57023 19.907C9.57023 19.907 9.57023 16.534 10.0037 14.9172C10.2419 14.026 10.9451 13.3228 11.8363 13.0847C13.453 12.6512 19.9349 12.6512 19.9349 12.6512C19.9349 12.6512 26.4167 12.6512 28.0335 13.0847C28.9247 13.3228 29.6279 14.026 29.866 14.9172C30.2995 16.534 30.2995 19.907 30.2995 19.907C30.2995 19.907 30.2995 23.28 29.866 24.8967Z" fill="#0079C1"/>
<path d="M17.8623 23.0158L23.2465 19.907L17.8623 16.7981V23.0158Z" fill="#0079C1"/>
</svg>
